# xmcd CD database file
#
# Track frame offsets:
#	150
#	29079
#	55421
#	75598
#	98167
#	122601
#	154521
#	176364
#	201900
#	228311
#	255339
#	274115
#
# Disc length: 3959 seconds
#
# Revision: 0
# Processed by: cddbd v1.5.1PL0 Copyright (c) Steve Scherf et al.
# Submitted via: CDex 1.51
#
DISCID=960f750c
DTITLE=Various Artist - Revista Som e Casa
DYEAR=1900
DGENRE=Jazz
TTITLE0=Janvier
TTITLE1=Cora
TTITLE2=Le reggae des enfants
TTITLE3=Bahasa Indonesia
TTITLE4=Beltlejuice
TTITLE5=Lullaby of birdland
TTITLE6=Que rest-t-ill de nos amours
TTITLE7=Big paints
TTITLE8=Gone was, Gone will be
TTITLE9=Side two
TTITLE10=Hand to hand
TTITLE11=Gonna tell on you
EXTD=
EXTT0=
EXTT1=
EXTT2=
EXTT3=
EXTT4=
EXTT5=
EXTT6=
EXTT7=
EXTT8=
EXTT9=
EXTT10=
EXTT11=
PLAYORDER=
